<?xml version="1.0"?>
<svg xmlns:rdf="http://www.w3.org/1999/02/22-rdf-syntax-ns#" xmlns="http://www.w3.org/2000/svg" xmlns:cc="http://web.resource.org/cc/" xmlns:xlink="http://www.w3.org/1999/xlink" xmlns:dc="http://purl.org/dc/elements/1.1/" xmlns:svg="http://www.w3.org/2000/svg" viewBox="0 0 203 203">
  <path d="m0 0v113c12.772 0 17.69-1.14 28 7-2.166-10.55-2.729-16.53 5-25l-1 4c4.134-0.89 2.174-4.55 2-8-6.482 1.84-10.72 13.79-16.779 13.79-4.261 0-4.289-7.838-3.493-10.504 2.489-8.328 7.65-15.067 16.272-17.286-0.007-10.446-6.94-27.166 0.174-36.275 4.296-5.499 13.383-6.925 19.826-8.713 23.277-6.462 64.94 1.968 74.81 26.988 2.98 7.55-2.77 14.628-6.86 20.576-10.39 15.114-14.99 39.164-29.95 50.424v1c10.432 4.08 18.43 7.1 30 5.92 2.39-0.25 17.13-4.39 10-5.92v-1l6-4h-6v-1l3-1v-1c-5.66 0.94-13.68 1.46-17-4l-12-2c11.37-14.39 28.88-8.62 43-5l-2-5 3-1 3 11h1c0.84-9.56 6.8-15.64 10.54-24 4.05-9.052 1.12-16.033 13.46-19l4-15h2l1 7 9 1c0.03 9.044 5.92 11.377 13 16v-83h-46v4l-11.09-3.8565-47.91-0.1435h-98z" fill="#ece2d3"/>
  <path d="m149 0l3 3-3-3z" fill="#8a7865"/>
  <path d="m151 0l4 3-4-3z" fill="#705d50"/>
  <path d="m155 0l-2 3v1c2.65-0.5676 3.36-1.5878 2-4z" fill="#8a7865"/>
  <path d="m156 0v4h1l-1-4z" fill="#d7c1a8"/>
  <path d="m33 61h7l5-4v3l13 2c1.814 6.417 8.51 5 14 5v1l-4 5 3 2h1l3-2v5l5 1c0.412-6.004 3.18-7.826 9-8l-2-5-10.317-7.382-8.683 0.382 2-2-1-5h-16v-6c15.602-1.982 35.826-7.302 51 0h1c13.28-4.021 16.12 13.159 15 22h-1v-2h-1l-1 4h-1l-4-6 2 11c14.6-9.871 9.63-25.181-4-32.957-17.056-9.733-38.441-15.344-58-10.808-14.826 3.439-24.715 14.085-19 29.765z" fill="#ae8c6e"/>
  <path d="m75 81v-1c-13.307-1.087-41.714-10.193-43.772-26.001-0.883-6.787 4.4-12.987 6.772-18.999-12.339 3.764-12.782 18.868-5.239 27.711 9.829 11.523 27.372 18.248 42.239 18.289z" fill="#d7c1a8"/>
  <path d="m53 46v6c19.562-2.472 34.688 3.607 53 9l1-1-3-5 7 6 4-1v-4c-5.69-2.472-10.32-7.367-16.286-9.441-15.722-5.468-29.941-3.531-45.714-0.559z" fill="#6c3d20"/>
  <path d="m83 44v1l15.714 1.919 16.286 9.081v4l-4-1 5 7c0.57-4.486-0.48-29.278-11-20l-22-2z" fill="#705d50"/>
  <path d="m114 47l2 23h1l1-4h1v2h1c1.55-8.334 1.14-15.469-6-21z" fill="#8a7865"/>
  <path d="m27 51l2 7-2-7z" fill="#ae8c6e"/>
  <path d="m37 59l7-8-7 8z" fill="#d7c1a8"/>
  <path d="m56 51v1h13l-1 7 19 7 2 5c-6.221 0.07-8.803 1.52-9 8l-5-1v-5l-3 2h-1l-3-2 4-5v-1h-7l-3 5 4 5-10-2v1l27.985 4.617 11.015-5.617c1.522-6.165 7.75-5 13-5l-4 5 1 2-3 1v1c12.75-1.911 11.54-9.711 6-19l-21-5.844-31-3.156z" fill="#8a7865"/>
  <path d="m104 55l3 4-3-4z" fill="#705d50"/>
  <path d="m123 56c0 4.628 0.24 9.064-2.67 13-1.47 1.989-5.78 7.12-6.33 3h-1c-2.54 4.39-6.19 5.857-11 7v-1l3-1-1-2 4-5-23 10v1l24-1.804 15-7.196c1.81-5.708 3.23-11.094-1-16z" fill="#d7c1a8"/>
  <path d="m40 61h-1l-4-1c3.452 11.32 20.812 15.275 31 17l-4-5 3-5-7-5-13-2v-3l-5 4z" fill="#705d50"/>
  <path d="m28 58l9 50-4-2-4.806 10 0.806 9 6 1c-2.066 6.7-9.761 7.87-16 8v1h3l-1 4h-18l1 4h2c6.564-5.96 21.157 3.72 29.09 3.95 15.373 0.44 29.038-6.64 43.906-7.8 18.737-1.47 44.324 17.81 57.004-6.15l-9 1c-3.55 13.86-34.778 8.16-40-1l16 5v-1l-15-6v-1l5-5-6 2v-1l3-4c-12.307 6.51-17.512-9.04-15-18h5l3-5c-0.812-9.828 4.682-12.782 14-13v-2c-23.5 0-52.638-5.407-67-26h-2z" fill="#8a7865"/>
  <path d="m107 58l3 5 1-1-4-4z" fill="#ae8c6e"/>
  <path d="m178 59l-3 13h9v-1c-4.64-2.844-4-7.018-4-12h-2z" fill="#8a7865"/>
  <path d="m180 61c0 4.443-0.6 8.15 4 10v1l-9-2h-1l-2 9 13-1-1-4 6 1v-8l-9-1-1-5z" fill="#ae8c6e"/>
  <path d="m110 62l2 6h1l-3-6z" fill="#d7c1a8"/>
  <path d="m95 75l7-5c-4.034 0.131-7.073 0.475-7 5m27-4c-13.36 11.467-29.428 11-46 11v-1h4v-1l-8 1v1l25 2v2c-9.391 0.084-15.704 2.665-14 13-3.054 0.654-2.936 2.01-3 5h-5c-3.254 7.28 5.052 28.08 14 18l5 2 21.1-38.986 6.9-14.014z" fill="#ae8c6e"/>
  <path d="m30 72v5c-9.023 1.437-14.403 8.741-16.54 17.286-0.718 2.867-0.7 11.074 3.761 11.074 5.889 0 11.192-11.747 16.779-14.36v5h1l-5-24z" fill="#d7c1a8"/>
  <path d="m173 101l-3 1-5-2-11 20c2.11 7.46 9.86 4.83 15 2-1.16 4.1-3.24 9.47 2 11l-1 6 8-2-1 5v1l12 1v-4c-11.24-4.5-2.86-20.43 1-28l-3-1-3 7c-5.67-2.39-8.3-4.62-8-11l27 1c0-12.78 3.15-35.807-17-29v1c2.41 1.19 9.89 4.218 6 7v1l2 1c-8.32 4.535-22.4-6.595-21-15-18.4 4.424-9.11 18.788 0 27z" fill="#705d50"/>
  <path d="m184 74l1 4-13 1v1c6.54 1.897 5.55 7.285 11 9.333 1.92 0.723 13.79 1.916 9-1.333v-1l3-1v-1l-9-5v-1l8-2v-1l-10-2z" fill="#8a7865"/>
  <path d="m76 81v1h25v-2l-25 1z" fill="#ece2d3"/>
  <path d="m161 84v4h1l-1-4m-108 40c11.323-3.85 12.244-12.57 13.729-23 0.412-2.89 2.37-8.767-0.336-10.973-6.152-5.015-19.81-2.9-19.056 6.929 0.343 4.464 5.558 5.244 7.059 9.104 1.938 4.98-1.392 12.54-1.396 17.94z" fill="#ae8c6e"/>
  <path d="m52 89c2.538 4.121 8.03 6.943 10 1l-10-1z" fill="#ece2d3"/>
  <path d="m162 90c-5.97 9.523-13.59 18.38-10 30h5l8-20 5 2 3-1-11-11z" fill="#ae8c6e"/>
  <path d="m108 94v5h1l1-5h-2m-76 1c-5.582 6.57-7.489 13.58-5 22l6-11 4 2-1-10-4 1v-4m58 23c7.838-2.04 10.74-8.36 10-16h-1l-2 2 1-8c-8.723 3.039-7.978 14.08-8 22m53-11v6l2 5-8 3v-1l5-6-5 1 1 3-12.02 3.67-11.98-2.67c1.78 6.1 11.98 5.25 17 4v1l-3 1v1h6l-6 4v1c2.38 0.34 7-0.58 8.95 0.75 6.94 4.78-6.78 12.37-9.95 13.26-10.43 2.91-19.57 0.22-30 1.05-5.912 0.47-10.814 2.94-17 2.94v3h-4v4l-12 3v1c13.447 2.92 26.708 6 41 3.68 18.66-3.05 42.11-19.59 44.86-39.68 0.79-5.79-2.02-12.58-3.86-18l-3 1z" fill="#d7c1a8"/>
  <path d="m102 117l23.98 4.85 12.02-3.85-1-3 5-1-5 6v1l8-3c-2.62-16.99-36.65-13.13-43-1z" fill="#ae8c6e"/>
  <path d="m176 107c-1.02 6.54 1.92 9.24 8 11 0.99-3.49 2.41-5.23 6-6l-2 5 5-2-1 5 7-5v10l-7-2h-1c-0.68 4.94-2.94 8.19-8 9 0.34 10.38 8.97 8.8 13.98 2 6.11-8.3 6.02-16.14 6.02-26l-27-1z" fill="#8a7865"/>
  <path d="m0 113v18c8.1191-1.91 26.982-6.32 34-1h1v-4l-6-1 3-1-4-6-11.005-5.98-16.995 0.98z" fill="#d7c1a8"/>
  <path d="m191 115l-5 2-2 15c7.69-1.3 8.17-10.56 9-17h-2z" fill="#ae8c6e"/>
  <path d="m192 126l7-1v-10c-5.68 0.94-6.85 5.8-7 11z" fill="#6c3d20"/>
  <path d="m150 116l-10 28h1l11-15-2-13m-7 3l-7 9c4.3-0.74 8.22-4.35 7-9z" fill="#8a7865"/>
  <path d="m151 119l2 11c-10.9 3.62-1.73 15.8 0.83 22.17 1.13 2.81 0.53 5.74 3.05 7.94 3.08 2.68 7.48 1.18 11.12 0.89v-3c8.57-0.26 16.87-6 20-14l-11-1v-1l1-5-8 2 1-6c-4.21-2.65-2.86-6.68-2-11-9.28 3.63-10.32 1.86-18-3m-64 7v1l6-4-6 3z" fill="#6c3d20"/>
  <path d="m202 123c-2.12 8.22-7.98 14.54-15 19 6.06 11.45-8.73 30.88-21 29-3.5 1.92-5.03-0.66-6-4l-6-2h-7l3-2-4-4-4 1v-6c-4.78 3.2-10.44 10.47-12 16l6-1 3 13h2l2-2 2 1 7 22h51v-55l-1-25z" fill="#ae8c6e"/>
  <path d="m41 126l-3 4v1l36-5h-33z" fill="#6c3d20"/>
  <path d="m0 131v4c9.3775 0 28.768 2.73 34-7l-34 3z" fill="#ece2d3"/>
  <path d="m152 128c-6.38 4.04-10.82 13.54-11 21l-4-1-4 10-4-1-6 2-1 7 8-6c7.96 0.89 8.64-6.9 13-12 2.59 7.87 14.81 16.76 23 17l-9.17-5.42-9-21.8 4.17-9.78z" fill="#705d50"/>
  <path d="m67 129v1h10l-10-1z" fill="#6c3d20"/>
  <path d="m131 132v1h5c-15.15 20.96-34.77 7.15-55.039 6.06-11.73-0.64-25.163 6.42-37 7.81-10.124 1.19-18.215-3.84-27.961-3.87v1l3 3-6-3 2-3c-7.5422-0.57-11.436 3.47-2.714 7.67 11.046 5.32 23.38 11.13 34.729 15.52 16.859 6.51 39.6 3.01 56.985 0.81v-1l-27.961-0.13-12.039-3.87v-1l12-3v-4h4v-3c6.776 0 12.511-2.79 19-2.98 11.59-0.34 22.47 2.73 33.67-2.44 6.91-3.19 8.27-14.42-1.67-11.58z" fill="#ae8c6e"/>
  <path d="m87 133c5.146 13.77 31.78 9.72 41 3l-18 1.74-23-4.74z" fill="#705d50"/>
  <path d="m0 135v1h7l-7-1z" fill="#ae8c6e"/>
  <path d="m0 136l1 5 20-2 1-4-22 1z" fill="#705d50"/>
  <path d="m107 137v1h7l-7-1z" fill="#ae8c6e"/>
  <path d="m0 140v26l25.286 15.51 57.714 7.49-1-3c8.919-0.25 22.4-1.01 24-12 8.27-1.18 16.59-6.25 17-15l6-2 4 1 4-10 4 1v-5c-9.54 4.45-16.73 13.12-27 16.91-29.367 10.82-61.896 8.38-90.015-5.12-8.777-4.21-15.308-11.66-23.985-15.79z" fill="#6c3d20"/>
  <path d="m13 143v1l6 3-6-4z" fill="#d7c1a8"/>
  <path d="m188 144c-4.21 7.24-11.37 13.42-20 14v3h-5l3 4c-8.52-0.55-19.07-9.65-23-17l-6 11 5-5v6l4-1 4 4-3 2h7l6 2c0.52 3.29 2.79 7.48 6 4 11.94 2.7 26.1-15.56 22-27m-175 5v1c9.162 5.61 20.096 12.05 31 13v-1l-31-13z" fill="#8a7865"/>
  <path d="m107 159l18-8c-5.38-2.08-15.9 2.73-18 8z" fill="#ece2d3"/>
  <path d="m130 160c0 3.98-19.68 13.54-24 14-2.7 10.48-14.883 11.42-24 12l1 3-48-4.83-22.741-9.28-12.259-8.89 1 13 5-2c1.9282 3.5 4.122 3.88 8 4l-1 4h7l3 7h1v-5c6.139 3.87 11.152 9.28 14 16h27l-2-5 18-2v-3l8 1c5.294-5.67 10.288-5.49 16.91-8.28 12.03-5.07 24.69-13.28 30.09-25.72h-6z" fill="#8a7865"/>
  <path d="m67 167v1h17l-17-1z" fill="#705d50"/>
  <path d="m82 194l-2 7-5-2v1l2 3h75c-0.27-9.41-3.07-13.75-7-22l-2-1-2 2h-2l-3-13-17.3 9.61-22.53 9.27-14.17 6.12z" fill="#d7c1a8"/>
  <path d="m0 176v27h38c-1.778-6.8-7.58-13.24-14-16v5h-1l-3-7h-7l1-4-8-4-6-1m81 17v3l-18 2c2.594 6.19 8.159 5 14 5l-2-3v-1l5 2 2-7h6l-7-1z" fill="#ae8c6e"/>
  <metadata>
    <rdf:RDF>
      <cc:Work>
        <dc:format>image/svg+xml</dc:format>
        <dc:type rdf:resource="http://purl.org/dc/dcmitype/StillImage"/>
        <cc:license rdf:resource="http://creativecommons.org/licenses/publicdomain/"/>
        <dc:publisher>
          <cc:Agent rdf:about="http://openclipart.org/">
            <dc:title>Openclipart</dc:title>
          </cc:Agent>
        </dc:publisher>
        <dc:title>cafeteria</dc:title>
        <dc:date>2013-09-14T19:11:36</dc:date>
        <dc:description> </dc:description>
        <dc:source>http://openclipart.org/detail/183448/cafeteria-by-mdlsoft-183448</dc:source>
        <dc:creator>
          <cc:Agent>
            <dc:title>mdlsoft</dc:title>
          </cc:Agent>
        </dc:creator>
        <dc:subject>
          <rdf:Bag>
            <rdf:li>cafe</rdf:li>
            <rdf:li>cafeteria</rdf:li>
            <rdf:li>coffee</rdf:li>
            <rdf:li>places</rdf:li>
            <rdf:li>upload2openclipart</rdf:li>
            <rdf:li>vectorized</rdf:li>
          </rdf:Bag>
        </dc:subject>
      </cc:Work>
      <cc:License rdf:about="http://creativecommons.org/licenses/publicdomain/">
        <cc:permits rdf:resource="http://creativecommons.org/ns#Reproduction"/>
        <cc:permits rdf:resource="http://creativecommons.org/ns#Distribution"/>
        <cc:permits rdf:resource="http://creativecommons.org/ns#DerivativeWorks"/>
      </cc:License>
    </rdf:RDF>
  </metadata>
</svg>
